# xmcd
#
# Track frame offsets:
#	150
#	17977
#	32180
#	52522
#	61460
#	77635
#	91242
#	107245
#	130030
#	144600
#	157277
#	169685
#	179897
#	191867
#
# Disc length: 2749 seconds
#
# Revision: 0
# Processed by: cddbd v1.4PL0 Copyright (c) Steve Scherf et al.
# Submitted via: EasyCDDAExtractor 4.6.9.1
#
DISCID=c50abb0e
DTITLE=Shane Dwight Blues Band - Boogie King
DYEAR=2001
DGENRE=Blues
TTITLE0=Sweet Home Chicago
TTITLE1=Snatch It Back and Hold It
TTITLE2=I Need U So Bad
TTITLE3=Just A Little Bit
TTITLE4=Boogie King
TTITLE5=Baby What You Want Me To Do
TTITLE6=Yonder's Wall
TTITLE7=That's Alright
TTITLE8=You Were Wrong
TTITLE9=Gangster Of Love
TTITLE10=Please Love Me
TTITLE11=Hide Away
TTITLE12=It Takes Time
TTITLE13=Backstroke
EXTD=
EXTT0=
EXTT1=
EXTT2=
EXTT3=
EXTT4=
EXTT5=
EXTT6=
EXTT7=
EXTT8=
EXTT9=
EXTT10=
EXTT11=
EXTT12=
EXTT13=
PLAYORDER=
